# xmcd
#
# Track frame offsets: 
#        150
#        12847
#        24366
#        47374
#        68814
#        79443
#        98908
#        122951
#        143460
#
# Disc length: 2211 seconds
#
# Revision: 0
# Processed by: cddbd v1.5.2PL0 Copyright (c) Steve Scherf et al.
# Submitted via: ExactAudioCopy v0.99pb5
#
DISCID=6b08a109
DTITLE=Madleen Kane - Chéri
DYEAR=1979
DGENRE=Country
TTITLE0=Forbidden Love
TTITLE1=Fire In Your Heart
TTITLE2=Chéri
TTITLE3=Secret Love Affair
TTITLE4=Forbidden Love (Suite)
TTITLE5=You And I
TTITLE6=Don't Leave Me Now
TTITLE7=Couldn't Find A Better Way For Saying Goodbye
TTITLE8=Retro (I Long For Long Ago)
EXTD=
EXTT0=
EXTT1=
EXTT2=
EXTT3=
EXTT4=
EXTT5=
EXTT6=
EXTT7=
EXTT8=
PLAYORDER=
